<?xml version="1.0" encoding="UTF-8"?>
<svg width="120px" height="120px" viewBox="0 0 631 515" version="1.1" xmlns="http://www.w3.org/2000/svg" xmlns:xlink="http://www.w3.org/1999/xlink">
    <!-- Generator: Sketch 54.1 (76490) - https://sketchapp.com -->
    <title>EliteCutsSVG</title>
    <desc>Created with Sketch.</desc>
    <g id="Page-1" stroke="none" stroke-width="1" fill="none" fill-rule="evenodd">
        <path d="M80.6510052,443.462848 L71.379523,441.929612 C68.379523,439.229612 66.5222222,440.048691 64.4222222,436.748691 C62.3222222,433.348691 58.0188612,429.8 57.4188612,429.1 C56.8188612,428.4 52.9,425.5 53.2,425.2 C53.5,425 48.9660441,420.6 48.3660441,419 C54.9320882,412.1375 43.1,404.3 38.6,402 C29,397.2 30.1729827,406.773854 30.1729827,389.973854 C30.1729827,372.073854 24.2729827,368.6 31.3729827,365.9 L44,360.4 L38.7,351.893459 C40.7959832,338.2 40.7959832,291.315852 38,256.981429 C36.2882882,235.961761 34.1477546,199.517414 31.3729827,183.988963 C29.7645889,174.987911 24.306928,168.79159 15,165.4 C17.6486552,149.6 19.2729827,141.133333 19.8729827,140 C20.7729827,138.3 44.0390269,100.326577 46.0390269,99.726577 C47.2390269,99.426577 71.7729827,88.5 72.5729827,88.5 C73.6729827,88.5 84.7,95.4 84.2,88.5 L104.757714,94.255652 C109.03688,94.2392567 100.886842,88.8947616 104.757714,90.4 C124.496527,98.0756904 149.743851,127.9 141.001814,127.9 C141.001814,127.9 148.948821,130.072798 151.072983,131.5 C152.607531,132.531047 155.768386,141.243848 154.972983,149.491513 C153.856002,161.073663 151.413682,164.539391 152.172983,171.113462 L142.9,175.239785 L145.572983,193.9 C145.672983,198.9 146.672983,221.2 147.772983,243.5 C148.772983,265.8 149.672983,286.1 149.672983,288.8 L149.672983,293.5 C150.006316,295.3 150.206316,296.9 150.272983,298.3 C150.272983,299.5 150.372983,303.6 150.472983,307.3 C150.672983,312.6 150.972983,314.2 152.172983,314.2 C152.972983,314.2 150.872983,318.7 151.172983,319.7 C151.472983,320.4 151.772983,328.7 151.872983,338.2 C152.072983,347.6 152.472983,355.7 152.972983,356.1 C153.372983,356.5 154.272983,356.3 154.972983,355.5 C155.872983,354.5 155.872983,354.4 154.972983,354.9 C154.272983,355.3 153.672983,355.2 153.672983,354.6 C153.672983,354.1 160.372983,361 160.072983,362 C159.672983,363 159.972983,363.8 162.272983,365.9 C167.472983,370.6 166.572983,374.3 166.772983,389.3 C166.872983,399.9 166.772983,400.8 164.572983,403.1 L162.272983,405.6 L173.672983,416.8 C192.172983,434.9 208.272983,446.3 231.172983,457.6 C253.072983,468.3 280.972983,477 285.472983,474.6 C286.672983,474 288.372983,473.5 289.372983,473.6 C290.772983,473.6 290.572983,473.9 288.672983,474.7 L286.172983,475.7 L289.072983,476.6 C296.772983,478.8 311.872983,479.7 332.372983,479.2 C350.272983,478.8 356.672983,478.3 367.772983,476.2 C387.172983,472.4 406.572983,465.9 424.172983,457.1 C445.272983,446.6 458.572983,437.5 477.972983,420.2 L484.572983,414.4 L489.072983,416.7 L493.572983,419 L487.372983,425.2 C478.172983,434.5 468.272983,442.3 454.472983,451.4 C447.772983,455.8 441.372983,460.1 440.472983,461 C439.472983,461.8 437.972983,462.5 437.172983,462.5 C436.372983,462.5 435.672983,463 435.672983,463.7 C435.672983,464.3 435.372983,464.6 435.072983,464.2 C434.672983,463.9 432.172983,464.7 429.372983,466.1 C408.472983,476.7 377.772983,485.6 351.772983,488.6 C336.272983,490.3 304.272983,489.3 288.672983,486.5 C252.072983,480 217.372983,464.9 188.372983,442.7 C177.872983,434.6 160.972983,419.1 157.572983,414.3 L155.372983,411.3 L158.272983,408.9 L161.172983,406.5 L156.972983,408.7 C151.172983,406.5 147.172983,409.2 145.572983,414.4 C140.872983,429.7 136.010609,437.425697 120.384162,443.462848 C119.699863,448.329515 114.491047,448.329515 104.757714,443.462848 L91.2542993,449.5 L80.6510052,443.462848 Z" id="Path" fill="#CA9B5C" opacity="0.363071987"></path>
        <path d="M65.8,377.481429 C64.9,369.481429 64.3,366.981429 63.4,366.981429 C63,366.981429 59.9,369.281429 56.5,371.981429 C53.1,374.781429 49.8,376.981429 49.3,376.981429 C48.6,376.981429 48.2,374.081429 48.1,369.781429 C48.1,365.781429 47.9,361.581429 47.6,360.481429 C47.4,359.381429 46.9,349.481429 46.7,338.481429 C46.4,327.481429 45.9,317.881429 45.7,317.281429 C45.5,316.581429 48.8,313.281429 53.1,310.081429 L61,304.081429 L60.5,293.281429 C60,280.981429 59.4,275.981429 58.4,275.981429 C58,275.981429 54.9,278.281429 51.5,280.981429 C48.1,283.781429 45.1,285.981429 44.8,285.981429 C44.5,285.981429 44.2,283.381429 44.2,280.181429 C44.2,276.981429 43.8,271.881429 43.2,268.881429 C42.7,265.881429 42.1,254.181429 41.8,242.781429 L41.4,222.081429 L44.9,219.381429 L48.4,216.681429 L48,202.881429 C47.8,195.281429 47.3,188.781429 47,188.381429 C46.6,188.081429 45,188.781429 43.3,190.081429 C41.6,191.281429 40,192.181429 39.8,191.881429 C39.6,191.681429 39.1,187.581429 38.7,182.881429 L38,174.181429 L41.1,172.381429 C43.3,171.081429 43.8,170.281429 42.9,169.681429 C42.1,169.081429 42.2,168.981429 43.4,169.281429 C44.3,169.581429 47.4,168.981429 50.2,167.881429 C53.1,166.781429 58.5,165.281429 62.2,164.481429 C70.1,162.781429 85.2,161.381429 85.2,162.281429 C85.2,162.681429 81.7,164.681429 77.5,166.881429 C73.2,169.081429 65,174.081429 59.4,177.981429 C50.6,184.081429 49.1,185.481429 49.6,187.281429 C49.9,188.481429 50.4,194.781429 50.8,201.281429 C51.2,207.681429 51.8,212.981429 52.2,212.981429 C52.6,212.981429 58.7,209.081429 65.8,204.381429 C85.8,191.081429 104,182.881429 127,176.981429 C131.6,175.781429 135.5,174.981429 135.7,175.181429 C135.9,175.381429 136.4,179.581429 136.8,184.481429 C137.2,189.481429 137.9,193.781429 138.4,194.081429 C138.9,194.381429 139.6,200.781429 139.9,208.281429 C140.4,218.781429 140.2,221.981429 139.3,221.981429 C138.3,221.981429 138.2,224.081429 138.7,230.881429 L139.4,239.681429 L134.1,240.981429 C119.5,244.481429 93,254.781429 79.5,262.181429 L72.2,266.181429 L72.8,279.781429 C73.2,287.381429 73.7,293.781429 74.1,294.181429 C74.5,294.581429 77.4,293.381429 80.7,291.381429 C94.8,282.881429 110.7,276.281429 129,271.381429 C141.2,268.081429 141.2,268.081429 141.2,278.381429 C141.2,282.981429 141.7,285.881429 142.6,286.881429 C144.5,288.981429 145.3,311.281429 143.5,313.081429 C142.7,313.881429 142.5,316.981429 142.9,323.081429 L143.5,331.981429 L140.8,331.981429 C137.2,331.981429 114.3,339.681429 101.2,345.281429 C90.8,349.781429 82.1,354.381429 73,360.181429 L68.2,363.181429 L68.1,371.381429 C68,382.181429 66.7,385.681429 65.8,377.481429 Z M72.2,315.981429 C72.2,315.481429 71.7,314.981429 71.1,314.981429 C70.6,314.981429 70.4,315.481429 70.7,315.981429 C71,316.581429 71.5,316.981429 71.8,316.981429 C72,316.981429 72.2,316.581429 72.2,315.981429 Z M69.2,298.481429 C70.2,297.281429 70.3,293.681429 69.7,283.181429 C69.3,275.681429 68.8,269.281429 68.6,269.081429 C68.4,268.881429 67.3,269.481429 66.2,270.481429 C64.2,272.281429 64.2,273.081429 64.7,284.881429 C65.1,291.781429 65.5,298.081429 65.7,298.781429 C66.3,300.381429 67.7,300.281429 69.2,298.481429 Z M58.7,257.981429 C59,257.481429 59.1,256.981429 58.8,256.981429 C58.5,256.981429 58,257.481429 57.7,257.981429 C57.4,258.581429 57.3,258.981429 57.6,258.981429 C57.9,258.981429 58.4,258.581429 58.7,257.981429 Z M67.2,252.481429 C67.8,251.681429 68.2,250.281429 67.9,249.281429 C67.5,247.881429 67.4,247.981429 67.3,249.781429 C67.2,251.081429 66.3,252.381429 65,252.981429 C63.4,253.581429 63.2,253.881429 64.3,253.881429 C65.2,253.981429 66.5,253.281429 67.2,252.481429 Z M73.9,247.281429 C73.5,246.981429 72.9,246.981429 72.5,247.281429 C72.2,247.681429 72.5,247.981429 73.2,247.981429 C73.9,247.981429 74.2,247.681429 73.9,247.281429 Z M50.2,237.581429 C50.2,237.281429 49.7,236.781429 49,236.381429 C48.3,235.981429 48.2,236.081429 48.6,236.781429 C49.3,237.981429 50.2,238.381429 50.2,237.581429 Z M53.7,232.981429 C54,232.481429 54.1,231.981429 53.8,231.981429 C53.5,231.981429 53,232.481429 52.7,232.981429 C52.4,233.581429 52.3,233.981429 52.6,233.981429 C52.9,233.981429 53.4,233.581429 53.7,232.981429 Z M121.9,226.281429 C121.5,225.981429 120.9,225.981429 120.5,226.281429 C120.2,226.681429 120.5,226.981429 121.2,226.981429 C121.9,226.981429 122.2,226.681429 121.9,226.281429 Z M67.2,223.981429 C67.2,223.481429 67,222.981429 66.8,222.981429 C66.5,222.981429 66,223.481429 65.7,223.981429 C65.4,224.581429 65.6,224.981429 66.1,224.981429 C66.7,224.981429 67.2,224.581429 67.2,223.981429 Z M71.3,220.281429 C72.6,218.681429 72.5,218.581429 71,219.881429 C70,220.581429 69.2,221.381429 69.2,221.581429 C69.2,222.381429 70,221.881429 71.3,220.281429 Z" id="Shape" fill="#F3F1ED" fill-rule="nonzero"></path>
        <g id="layer126" opacity="0.831240699" transform="translate(11.000000, 24.000000)" fill-rule="nonzero">
            <path d="M301.7,460.3 C291.4,459.5 274.5,456.7 263.7,454 C223,443.8 188.1,424.3 158.7,395.3 L146.2,383 L149.9,380.5 L153.6,378 L163.9,388.3 C192.4,416.8 230.1,437.6 269.2,446.4 C339.9,462.4 414.8,442.6 466.9,394.2 C471.2,390.2 475.2,387 475.9,387 C476.6,387.1 478.7,387.9 480.5,388.9 L483.8,390.6 L476.5,397.6 C429.3,442.1 365.2,465.1 301.7,460.3 Z" id="Path" fill="#CA9B5C"></path>
            <path d="M76.2,426.3 C69.3,424.7 58.8,420.5 54.4,417.6 C44.2,411.1 32.6,396.5 31.1,388.3 C30.5,385.4 29.6,384.5 22.7,381 L15,376.9 L14.4,365.2 C13.4,347.8 15.7,340.4 22.8,337.6 L27,335.9 L26.3,319.7 C26,310.8 25.2,295 24.7,284.5 C24.2,274.1 23,251.8 22.2,235 C19.9,187 18.7,165.8 18.1,162.4 C17.8,160.1 16.9,158.9 14.7,158 C10.7,156.3 4.2,149.1 2.9,144.9 C2.3,143 1.6,135.4 1.3,128 L0.8,114.4 L5.5,111.3 C8.1,109.6 11.6,107.5 13.3,106.7 C15.8,105.4 16.6,104 18,99.2 C20.2,91.2 28.6,78.9 35.5,73.5 C54.5,58.6 76.8,55.9 98.4,65.9 C112.3,72.4 122.9,83.1 128.8,96.5 C130.5,100.3 131.8,101.5 136.7,104 C145.8,108.6 146.3,109.6 147,125.6 C147.5,138.9 147.5,139.5 145.1,143.6 C143.8,145.8 141.1,149.4 139.1,151.4 L135.5,155.1 L136.6,179.3 C138.8,227.3 141.6,291.9 142.3,310.5 C142.7,321 143.3,330.2 143.6,331.1 C143.9,332 146.7,334.7 149.7,337.1 C154.7,341.2 155.2,342.1 156.4,347.5 C157.1,350.8 157.6,357.9 157.7,363.2 L157.7,373 L153,376.5 C150.3,378.4 147.2,380.3 146.1,380.6 C144.5,381 143.4,382.9 141.8,387.7 C138.8,396.8 135.2,402.5 128.2,409.5 C116.5,421 101.9,427.1 86.3,426.9 C81.9,426.8 77.3,426.6 76.2,426.3 Z M96.6,417.4 C98.3,417 99.4,416.4 99.2,416 C98.9,415.5 99.5,415.4 100.4,415.6 C101.4,415.9 105.5,414.5 109.6,412.5 C122.1,406.5 133.1,393.3 136.6,380 C137.7,376.1 138.5,375.1 142.3,373 C150.4,368.8 151,367.3 150.2,354 C149.6,343.4 149.3,342.3 146.9,339.7 C145.4,338.1 142.6,336 140.6,334.9 L136.9,333.1 L136.3,313.3 C135.9,302.4 134.7,274.8 133.7,252 C132.6,229.2 131.3,198.1 130.7,183 C130.1,167.9 129.4,154.5 129.1,153.4 C128.7,151.7 129.5,150.5 133.2,147.9 C140.1,142.9 140.7,141.3 140,128.1 C139.3,115.2 138.4,113.4 130.7,109.5 C126.4,107.3 125.5,106.2 122.1,99.3 C116.8,88 105.2,76.6 94.6,72.2 C78.7,65.6 65.2,65.7 50.9,72.6 C38.4,78.6 29.2,89.3 24.2,103.6 C22.1,109.7 21.5,110.4 15.6,114.3 L9.2,118.5 L9.4,130.8 C9.7,145 10.3,146.3 18.2,150.6 C21,152.1 23.3,153.4 23.4,153.4 C23.5,153.5 24.7,175.6 26.1,202.5 C27.5,229.5 29.1,259.6 29.6,269.5 C30.2,279.4 31.2,298.5 31.8,311.9 L33,336.4 L30.6,337.9 C29.3,338.8 26.5,341.1 24.4,343.1 L20.7,346.8 L21.3,358.2 C22,370.8 22.2,371.2 30.7,375.5 C34.6,377.5 35.5,378.5 37.1,383.1 C39.8,390.8 46.1,400.3 52,405.5 C57.5,410.3 67.1,415.4 73.3,416.9 C77.9,418 92.1,418.3 96.6,417.4 Z" id="Shape" fill="#080808"></path>
            <path d="M74.7,411.2 C69.6,409.5 64.4,407.1 65.8,407 C66.1,407 68.8,407.7 71.7,408.6 C75.6,409.8 79.9,410.1 87.2,409.8 C95.9,409.5 98.1,409 104,406.3 C108,404.4 113.3,400.7 116.9,397.3 C122.2,392.3 122.8,391.9 121.1,394.9 C118.5,399.5 112,405 104.5,409 C98.9,412 97.2,412.4 89.2,412.7 C82.5,412.9 78.8,412.5 74.7,411.2 Z" id="Path" fill="#080808"></path>
            <path d="M101,385.3 C101.4,385 102,385 102.4,385.3 C102.7,385.7 102.4,386 101.7,386 C101,386 100.7,385.7 101,385.3 Z" id="Path" fill="#080808"></path>
            <path d="M64.2,378 C53.6,376.9 42,374.4 34.4,371.7 L28.2,369.5 L27.9,363.4 L27.6,357.3 L37.6,359.6 C60.8,365.1 87,366.6 104.6,363.5 C114.5,361.8 130,357.7 137,354.9 C142.7,352.6 144.5,353 139.7,355.5 C137.9,356.4 136.7,357.4 137,357.7 C137.3,357.9 138.5,357.6 139.7,357 C144,354.7 142.8,356.9 138.3,359.5 C135.8,361 133.7,362.4 133.7,362.6 C133.7,362.8 135.8,362 138.5,360.9 C144.3,358.4 142.7,360.1 135,364.7 C129.1,368.2 130.7,368.3 138.5,364.9 C144.2,362.4 143.5,364.7 137.6,367.7 C131.5,370.8 119.7,374.5 109.6,376.5 C99.6,378.4 75.4,379.2 64.2,378 Z" id="Path" fill="#080808"></path>
            <path d="M72,354.5 C77.7,350.5 94,342.7 104.7,338.7 C114.8,335 131.4,330.4 132.1,331.1 C132.4,331.3 132.7,335.3 132.8,340 L133,348.5 L128.6,349.7 C115.3,353.6 98.5,356.2 83.7,356.7 L68.2,357.2 L72,354.5 Z" id="Path" fill="#080808"></path>
            <path d="M54.3,345.3 C53.9,340.7 53.1,337 52.7,337 C52.3,337 48.7,339.5 44.9,342.5 L37.9,348 L37.5,341.2 C37.3,337.5 37.3,334 37.5,333.3 C37.7,332.6 41.2,329.5 45.3,326.4 L52.7,320.7 L52,308.1 C51,289.1 51.5,289.7 43,296.4 L35.9,301.9 L35.2,294.4 C34.6,287.7 34.7,286.7 36.4,285.4 C37.4,284.7 40.8,282.1 44,279.8 L49.8,275.5 L49.1,261 C48.7,253 48.3,246.3 48.1,246.1 C47.9,245.9 45,247.8 41.6,250.4 C32.6,257.4 32.7,257.4 32.7,248.7 L32.7,241.3 L40.2,235.5 C47.5,230 48.6,228.1 47.8,223.6 C47.7,223 47.6,217.3 47.6,210.8 C47.7,198.2 47.3,197.5 42.9,200.6 C41.1,201.9 40.7,203.1 40.6,208.3 C40.5,214.8 40.3,214.9 39.2,208.8 C38.9,206.7 38.3,205 37.9,205 C37.5,205 35.9,206.2 34.2,207.6 L31.2,210.2 L30.9,201.8 L30.6,193.5 L34,190.5 L37.5,187.5 L36.8,172.1 L36.2,156.6 L32.6,159.8 L29,163 L28.3,159.2 C28,157.2 27.7,153.2 27.7,150.4 L27.7,145.3 L33.6,142.1 C41,138.2 52.5,135.2 64,134.2 C68.8,133.8 72.7,133.5 72.7,133.6 C72.7,133.8 69.9,135.3 66.5,137 C63,138.8 55.1,143.6 48.8,147.7 L37.5,155.2 L38,160.9 C38.4,164 38.9,170.7 39.3,175.8 C39.7,180.8 40.3,185 40.7,185 C41.1,185 43.4,183.5 45.8,181.7 C65.7,166.7 87.3,156.1 111.2,149.6 C116.7,148.1 122,146.6 123,146.3 C124.5,145.9 124.7,146.8 124.7,154.9 L124.7,163.9 L120.5,165 C118.1,165.6 110.8,167.9 104.2,170.1 C97.6,172.3 91.8,174.3 91.2,174.4 C85.8,176 57.7,190 57.7,191.1 C57.7,191.6 57.1,192 56.4,192 C55.7,192 53.7,193.2 51.9,194.8 L48.6,197.5 L49.7,211 C50.3,218.4 51,225.1 51.2,225.8 C51.6,226.8 52.4,226.6 54.7,225 C57.5,223 57.7,222.5 57.7,216.3 C57.7,212.6 58,210 58.4,210.3 C58.7,210.7 58.9,213 58.9,215.4 C58.8,217.9 59.1,220.1 59.7,220.5 C60.2,220.8 64.9,218.6 70,215.6 C83,207.9 101.9,200.4 117.9,196.5 C122.2,195.5 125.8,194.8 126.1,195.1 C126.3,195.3 126.6,198.9 126.9,203.1 L127.2,210.8 L121.7,212 C107.3,215.2 69.6,230.6 62.3,236.2 C60.6,237.5 60.5,238.7 61.2,252.3 L61.9,267.1 L66.1,264.5 C75.6,258.6 92,251 103.2,247.2 C115.2,243.1 127.7,239.6 128.2,240.2 C129.1,241.3 129.3,255.1 128.3,255.8 C127.7,256.3 122.8,257.9 117.3,259.4 C104.2,263 84.5,270.8 72.2,277.4 C63.7,281.9 62.1,283.1 61.6,285.6 C61,288 60.9,288.1 60.8,286.2 C60.7,283.9 60.7,283.9 57.7,285.7 L54.6,287.5 L54.9,302.2 C55.1,310.2 55.5,317.2 55.9,317.6 C56.3,318 59.7,316.3 63.4,313.8 C80.7,302.3 92.4,296.8 113.2,290.6 C119.8,288.6 126.4,286.5 128,286.1 C130.7,285.2 130.7,285.2 130.7,289.8 C130.7,292.4 131,296.1 131.3,298 L131.9,301.5 L122.4,304.2 C102.5,309.8 78.1,320.2 63.2,329.6 L55.8,334.2 L55.5,343.8 L55.2,353.5 L54.3,345.3 Z M57.1,270.5 C58.9,269.2 59.1,267.9 58.8,259.7 C58.6,254.7 58.2,247.9 57.9,244.8 L57.2,239.1 L54.8,240.9 C52.4,242.7 52.4,242.7 53.2,257.4 C53.6,265.4 54.2,272 54.6,272 C54.9,272 56.1,271.3 57.1,270.5 Z" id="Shape" fill="#080808"></path>
            <path d="M56.9,201.5 C56.9,199.9 57.1,199.3 57.4,200.3 C57.6,201.2 57.6,202.6 57.4,203.3 C57.1,203.9 56.9,203.2 56.9,201.5 Z" id="Path" fill="#080808"></path>
            <path d="M14.7,125.9 L14.7,119.9 L20,117.5 C44.7,106.2 85.6,103.4 114.2,111 C121.9,113.1 130.3,116.5 131.2,118 C132,119.3 132.3,119.3 124.9,117 C115.7,114.1 115.2,114.6 123.3,118.4 C130.7,121.9 134.6,125.1 128.1,122.4 C126.1,121.6 124.2,121.1 123.9,121.4 C123.6,121.7 123.8,122 124.3,122 C125.7,122 132,126 131.5,126.6 C131.2,126.8 129.4,126.3 127.4,125.5 C122.5,123.5 122.7,124.4 127.7,127 C129.9,128.1 131.7,129.2 131.7,129.4 C131.7,129.6 128.7,128.9 125,127.8 C89.6,117.8 63,118.2 26.9,129.1 C21.6,130.7 16.6,132 16,132 C15.1,132 14.7,130.1 14.7,125.9 Z M122.4,120.3 C122,120 121.4,120 121,120.3 C120.7,120.7 121,121 121.7,121 C122.4,121 122.7,120.7 122.4,120.3 Z" id="Shape" fill="#080808"></path>
            <path d="M43.4,92.5 C37.8,87 47.5,75.5 57.1,76.2 C60.5,76.5 61.3,76.9 62.1,79.3 C64.1,85 57.2,92.6 48.9,93.7 C46.1,94.1 44.6,93.7 43.4,92.5 Z" id="Path" fill="#080808"></path>
            <path d="M66,76.3 C62.1,74.8 67.8,69.3 72.2,70.4 C75.3,71.2 75.4,73.4 72.5,75.4 C70.2,77 68.3,77.3 66,76.3 Z" id="Path" fill="#080808"></path>
            <path d="M370.7,394.6 C356.6,390.7 346.7,380.9 343.2,367.5 C337,343.5 350.6,315.1 377.4,296.4 C379.8,294.8 381.7,293.2 381.7,292.8 C381.7,291.9 370.8,288.4 360.7,286.1 C338.3,281.1 328.5,283 323.1,293.2 C320.4,298.4 321.6,306.7 325.6,309.7 C328.1,311.6 337.6,311.2 342.4,309 C346.6,307.1 346.7,307.1 347.7,309 C351.3,315.8 345.6,326.7 336.2,331.1 C327.7,335 314,332.7 306.4,326 C299.9,320.3 297.6,314.6 297.6,304.7 C297.6,297.7 298,295.8 300.7,290.4 C305.5,280.7 314.7,273.4 326.2,270.4 C340.5,266.5 363.2,270.8 387.2,282 L395.4,285.7 L401.3,283.3 C423.9,274 449.8,275.4 453.3,286 C455.5,292.8 451.2,298.1 440.8,301.5 C433.4,303.9 417.3,303.1 406.2,299.7 C398.6,297.4 398,297.3 395.2,298.9 C390.4,301.5 374.5,318 370.9,324.1 C365.4,333.4 363.4,340.4 362.9,351.6 C362.5,360.3 362.8,362.3 364.7,366.8 C367.4,373 374.1,379.5 379.3,380.9 C392.1,384.5 412.4,379.1 426.5,368.5 C435.2,362 439.6,356.7 447.2,343.9 C450.9,337.6 454.1,332.3 454.3,332.1 C455.3,331 463,331.9 464.4,333.3 C465.7,334.6 465.3,335.6 461.1,342.1 C451.4,357.3 447.1,367.1 449.3,369.3 C450.6,370.5 455.4,367.7 460.5,362.7 C463.4,359.8 468.3,353.2 471.4,348 C481.6,330.5 481.2,331 486.1,331 C493.2,331 493.6,332.7 488.8,341.2 C480.4,355.9 475.3,367 476.5,368.2 C478,369.7 482.7,366.6 487.1,361.4 C489.1,359 495.2,349.5 500.7,340.3 C510.4,323.9 510.6,323.5 508.1,323.2 C504,322.7 505.5,319.7 510.3,318.6 C514,317.8 514.9,317 518.1,311.4 C522.9,303.3 523.8,302.6 528.8,303.3 C534.9,304.1 535.3,305 531.8,311.2 C530.1,314.2 528.7,317 528.7,317.3 C528.7,317.7 530.1,318 531.7,318 C533.4,318 534.7,318.4 534.7,318.8 C534.7,320.6 532.1,322 528.7,322 C525.1,322 525.1,322.1 516.5,336.8 C504.8,356.7 501.7,362.9 501.7,365.6 C501.7,369.6 504.7,368.4 510.7,362.2 C517.8,355 524.7,343.3 526.2,336 C528.1,326.7 531.3,323 537.2,323 C543.7,323 544.2,326.6 538.8,333.9 L534.8,339.2 L538.3,346.1 C540.3,350 542.3,355.8 543,359.1 L544.1,365 L546.5,362.8 C547.9,361.5 551,357.8 553.4,354.5 C558.6,347.6 560,346.5 561.6,348.4 C562.5,349.5 561.6,351.4 557.7,357.3 C547,373.4 529.8,384.2 520.1,381 C511.5,378.1 515,369 524.7,369 C529.3,369 530.4,365.8 528.8,357 C528.1,353.2 527.2,350 526.7,350 C526.3,350 524.1,352.8 521.9,356.3 C512.2,371.6 500.8,382 494,382 C489.8,382 485.7,378.2 485.7,374.4 L485.7,371.7 L481.1,375.9 C475.8,380.9 470.4,383.4 467,382.5 C463.2,381.6 460.7,378.4 460.7,374.5 C460.7,372.6 460.4,371 460.1,371 C459.8,371 458.5,372.3 457.1,373.9 C453,378.8 445.8,383 441.5,383 C437,383 433.7,380.2 433.7,376.5 C433.7,373.3 432.7,373.3 429.6,376.6 C423.1,383.6 408.9,391.8 398.4,394.6 C392,396.3 376.8,396.3 370.7,394.6 Z M333,326.7 C334.8,325.9 337.9,323.4 340,321.1 C344.1,316.5 345,313.8 341.5,316.4 C334.2,321.7 325.1,323.5 314.3,321.7 C309.6,320.9 309.4,320.9 310.8,322.6 C314.7,327.3 326.3,329.4 333,326.7 Z M443.5,294.6 C447.4,292.6 447.4,290.2 443.7,288.2 C438.5,285.5 409.7,288.7 409.7,292.1 C409.7,292.5 412.3,293.8 415.5,294.9 C422.8,297.5 438.3,297.4 443.5,294.6 Z" id="Shape" fill="#CA9B5C"></path>
            <path d="M533,294.3 C531.7,294.1 530.7,293.6 530.7,293.4 C530.7,293.1 531.8,288.5 533.1,283.2 C537.7,265 539.1,252.9 539.1,231.5 C539.2,206.8 537.1,190.5 531,169.5 C516.5,119.1 484.3,75.3 440.2,46.1 C408.8,25.3 370.8,12.5 334,10.3 L322.8,9.7 L321.2,5.2 C320.4,2.7 319.8,0.5 320,0.3 C320.7,-0.3 347.4,2.1 356.7,3.6 C427.3,15 490.9,61.2 523.4,124.6 C539.1,155 547.1,186.7 548.4,222.5 C549.2,245.6 547.3,263.9 541.7,286.3 C540.6,290.7 539.7,294.4 539.7,294.6 C539.7,295.1 536,294.9 533,294.3 Z" id="Path" fill="#CA9B5C"></path>
            <path d="M246.6,277.6 C221.3,272.3 203.8,254.8 202,232.9 C200.6,216.2 210.5,198.2 227.9,186 C231.6,183.4 237.1,180.2 240.2,179 L245.7,176.8 L245.7,171.6 C245.7,160.6 250.5,150.2 262,136.5 C263.5,134.7 264.7,132.8 264.7,132.3 C264.7,131.2 246.8,125.2 235.2,122.3 C225.5,119.9 204.4,119.8 200.2,122.2 C190.5,127.5 184.9,139.5 187.6,149.3 C190,157.5 193.8,160 204,160 C208.9,160 211.5,159.3 216.2,156.9 L222.2,153.9 L223.9,156.1 C228.2,161.3 225.4,174.6 218.4,181.8 C210.5,190.1 200.1,192.9 186.3,190.5 C172.9,188.2 161.2,179.6 155.9,168.2 C153.7,163.5 153.2,160.7 152.9,152.2 C152.2,135.6 155.7,126.8 167.1,115.5 C181.3,101.4 189.3,99.1 222.5,99.1 L245.7,99.1 L245.7,101.5 C245.7,102.8 245.1,104.1 244.5,104.3 C243.1,104.9 246.2,105.4 248.6,105 C249.4,104.9 250.3,105.2 250.6,105.7 C250.9,106.1 257.8,109.8 265.9,113.8 L280.5,121.1 L287.6,117.5 C291.5,115.6 298.8,112.8 303.8,111.4 C312.2,109 314,108.8 326.6,109.3 C335.7,109.6 341.7,110.3 344.7,111.4 C355.8,115.5 360.7,121.6 358.7,128.9 C355.7,140.1 341.5,147 321.1,147 C311.9,147 303.7,145.3 288,140.2 L281.8,138.2 L276.7,143.6 C270.5,150.2 266.6,158.4 265.9,166.8 L265.4,173 L272.4,173 C283,173 291.7,178.1 291.7,184.4 C291.7,186.8 287.4,191.2 283.3,193.1 C276.3,196.3 264.8,194.9 255.6,189.8 L252,187.8 L247.1,190.3 C241.1,193.4 233.8,200.9 230,208.1 C227.5,213 227.2,214.5 227.2,223.5 C227.2,235.3 228.6,238.9 235.9,246.3 C248.5,259 269.3,261.9 292.4,254.4 C306.4,249.8 321.4,240.5 329.5,231.4 C331.9,228.7 342.1,212.1 352.1,194.5 C362.1,176.9 372.5,158.8 375.1,154.3 C379.9,146.3 382.4,143.8 383.1,146.3 C384.6,151.3 384.6,151.3 388.4,150.7 C390.5,150.3 392.6,150.5 393.4,151.1 C395,152.5 395.8,150.8 374.7,187.5 C353.7,223.9 348.7,233.6 348.7,237.8 C348.7,240.5 349,241 351.2,241 C356.3,241 362.3,232.9 374,210.5 C380,199 385.8,188.7 386.9,187.8 C390.6,184.5 401.7,186.2 402.5,190 C402.6,190.8 399.8,196.7 396.2,203 C386.2,220.6 379.7,234 379.7,237.2 C379.7,239.5 380.1,240 382.1,240 C386.2,240 392.3,233.3 397.1,223.5 C399.5,218.6 406.7,205.7 413.1,195 L424.6,175.5 L421,175 C419,174.7 417.2,174 417,173.4 C416.4,171.6 420.3,169 424.8,168.2 C429,167.5 429.3,167.2 434.4,158.5 C441.7,146.2 441.9,146 447.2,146 C451.6,146 457.7,148.2 457.7,149.8 C457.7,150.2 455.7,154 453.2,158.4 C450.7,162.7 448.7,166.4 448.7,166.6 C448.7,166.8 450.5,167 452.6,167 C454.8,167 456.9,167.5 457.3,168.1 C458.6,170.2 454.1,173.3 448.9,173.8 C444.3,174.2 443.8,174.5 441.6,178.4 C440.4,180.6 436,188.1 431.9,195 C421.1,213 410.5,233.8 410.9,236.3 C411.5,240.6 415.3,239.6 421.7,233.3 C426.5,228.7 428.2,226.1 430.1,221 C434.4,209.2 440.9,199.6 450.9,190.6 C459.4,182.9 466.4,179.7 476.2,179.2 C483.4,178.9 484.6,179.1 487.7,181.2 C503.2,191.7 483.7,218.5 455.4,225.6 C449.7,227 448.6,227.6 448.1,229.7 C447.1,233.5 449.5,242.8 451.7,244 C455.1,245.8 460.8,245 467.6,241.9 C472.9,239.4 476.4,236.5 485.2,227.5 C496.2,216.3 500.1,213.2 501.1,214.9 C501.9,216.2 496.6,226 491.3,232.8 C485,241.1 475,250.1 468.6,253.3 C452.3,261.5 435.4,257.9 429.5,245.1 L427.2,240 L420.7,246.4 C411,255.9 407.5,258 401,258 C396.3,258 395.1,257.6 392.6,255.1 C391,253.5 389.7,251.4 389.7,250.6 C389.7,248.3 389,248.6 383.5,252.9 C380.8,255.1 376.6,257.6 374.2,258.6 C368,260.9 362.1,259.1 359.1,253.7 C357.1,250 357,250 355.2,252 C354.2,253.1 351.2,255.4 348.5,257.2 C340,262.6 331.3,261 328.1,253.4 L326.6,249.9 L323.9,252 C322.4,253.1 318.3,256.5 314.7,259.5 C307.2,265.8 291.1,274.1 281.7,276.5 C272.8,278.8 254.9,279.3 246.6,277.6 Z M460,215.4 C474.4,208.1 483.7,199.3 483.7,192.9 C483.7,189.2 482.5,188 478.8,188 C474.2,188 460,202.5 454.3,213 C451,219 452,219.4 460,215.4 Z M369.1,184.4 C378.1,171.8 382.5,163.4 380.9,161.8 C378.9,159.8 374.1,166.5 367.2,180.4 C358,199 358.3,199.6 369.1,184.4 Z M208.5,183.7 C212.4,181.1 220.6,170.6 219.5,169.5 C219.2,169.2 217.9,169.8 216.6,170.9 C207,178.4 195.5,180.9 181.8,178.6 C176.8,177.7 172.4,177 172.1,177 C170.8,177 174,180 177.4,182.2 C183.7,186 187.8,187 196.3,186.8 C203.2,186.5 205,186.1 208.5,183.7 Z M278.6,186.4 C283.7,185.3 282.1,184 275.7,184 C268.5,184 267.5,186.2 274.3,186.9 C274.9,186.9 276.9,186.7 278.6,186.4 Z M332.7,137.5 C339.2,136.7 346.2,134.2 348.2,132 C350.7,129.3 348.7,126.6 343,124.9 C335.1,122.6 305.7,123.5 309.7,126 C310.4,126.4 310.6,127.3 310.3,127.9 C309.4,129.3 305.4,129.3 304,127.9 C303.1,127 302,127 299.8,128 C298.1,128.7 296.7,129.6 296.7,130 C296.7,131.1 311.3,136.9 316.7,137.9 C321.1,138.7 323.5,138.7 332.7,137.5 Z M241.2,103 C240.1,102.5 238.5,102.1 237.7,102.1 C236.8,102.1 236.9,102.5 238.2,103 C239.3,103.5 240.9,103.9 241.7,103.9 C242.6,103.9 242.5,103.5 241.2,103 Z M233.2,101 C232.1,100.5 230.3,100.2 229.2,100.2 C227.6,100.2 227.7,100.4 229.7,101 C233.1,102.1 235.7,102.1 233.2,101 Z" id="Shape" fill="#CA9B5C"></path>
            <path d="M403.5,171.4 C401.7,170.5 400.3,168.6 399.6,166 C397.2,158.2 403.6,148.7 412.1,147.3 C415.1,146.8 416.1,147.2 418.7,149.8 C421.1,152.2 421.7,153.7 421.7,157 C421.7,162.7 418.2,168.7 413.5,171.1 C409.1,173.4 407.1,173.4 403.5,171.4 Z M409.3,155.3 C410.9,154.2 413.1,153 414.2,152.5 C417.6,151.2 414,150.7 410.2,152 C406,153.4 403.7,156.4 403.7,160.5 L403.8,163.5 L405.1,160.4 C405.9,158.7 407.8,156.4 409.3,155.3 Z" id="Shape" fill="#CA9B5C"></path>
            <path d="M385.1,145.5 C384.4,142.9 384.6,142.7 416.5,94 C424,82.7 430.4,73.1 431,72.5 C431.5,72 423.3,88.7 412.8,109.8 L393.7,148 L389.7,148 C386.3,148 385.6,147.6 385.1,145.5 Z M390.7,144 C390.7,143.5 390.3,143 389.7,143 C389.2,143 388.7,143.5 388.7,144 C388.7,144.6 389.2,145 389.7,145 C390.3,145 390.7,144.6 390.7,144 Z" id="Shape" fill="#CA9B5C"></path>
            <path d="M306.7,102.9 C287.8,99.9 272.4,97.5 243.2,93 C225.1,90.2 202,86.6 192,85 C170.3,81.4 169.5,81.4 167.1,84.1 C163.8,87.7 161.8,88.4 159.6,86.4 C157.4,84.4 157.1,82 158.9,80.2 C160.6,78.5 158.8,77.4 152.1,75.9 C144.7,74.2 140.6,75.3 136.3,80 C132.3,84.5 131.1,84.9 130.2,82 C129.4,79.4 131,76.6 135.4,73.3 C138.8,70.7 139.7,70.5 149.1,70.5 C154.7,70.5 160.8,70.7 162.7,71 C166,71.5 166.7,71.1 174.2,63.9 C178.6,59.6 184.8,54 187.9,51.4 C191.1,48.8 193.5,46.4 193.3,46.2 C193.1,46 191.2,46.6 189.2,47.4 C184.5,49.4 182.3,49.4 180.7,47.5 C179.8,46.5 179.8,46 180.6,46 C181.2,46 181.6,45.7 181.6,45.3 C181,41.4 183.9,40.9 186.8,44.3 C187.9,45.5 188.6,45.9 188.5,45.1 C188.1,43.1 193.6,41.4 195.8,42.8 C197.2,43.7 197.9,43.6 198.9,42.7 C199.6,42 202.2,40.1 204.7,38.4 C207.2,36.7 212,33.5 215.4,31.1 C219,28.7 222.2,27.2 222.8,27.6 C223.5,28 223.7,27.9 223.3,27.2 C222.7,26.3 225.4,24.7 226.7,25.3 C227,25.4 228.3,24.5 229.7,23.3 C231,22 232.4,21 232.9,21 C233.3,21 236.5,19.7 239.9,18 C243.3,16.4 246.3,15.2 246.5,15.5 C246.8,15.8 247.6,15.5 248.3,14.9 C249,14.4 254.9,12.1 261.4,9.9 C292.9,-0.8 310.4,-2.6 315.2,4.3 C316.1,5.5 316.7,8.6 316.7,11.6 C316.7,20.3 311.8,24 300.4,24 C293.2,24 241.9,41.5 238.4,45.2 C237.4,46.2 236.2,46.8 235.7,46.5 C235.3,46.2 233.1,46.7 230.9,47.4 C228.7,48.2 226.5,48.5 226.1,48.2 C225.7,47.8 225.7,48.1 226.1,48.8 C226.6,49.6 226.1,50 224.6,50 C222.9,50 222.7,50.3 223.6,51.4 C224.5,52.5 224.5,53 223.6,53.5 C223,53.9 222.1,53.7 221.7,53 C220.8,51.6 207.8,58.4 193.5,67.8 C182.8,74.9 180.7,76.7 182.8,77.4 C184.8,78 198.8,81 199.8,81 C200.2,81 199.5,79.8 198,78.3 L195.5,75.5 L198.8,74.9 C200.7,74.6 204.2,74.4 206.7,74.4 L211.2,74.5 L211.5,78.8 C211.7,81.6 212.3,83 213.3,83 C214.3,83 214.7,81.7 214.7,78.4 C214.7,74.5 215,73.9 216.7,74.2 C217.7,74.4 219.2,73.7 219.9,72.8 C221.1,71.3 224.6,71.6 268.2,77.1 C294.1,80.3 315.7,83.2 316.3,83.4 C316.9,83.6 317.2,85.1 316.9,86.8 C316.6,89.1 316.9,89.8 318.6,90.3 C321.1,90.9 320.5,93.6 317.7,94.3 C316.4,94.6 315.7,96.1 315.2,99.4 C314.8,101.9 314,103.9 313.3,103.9 C312.7,103.8 309.7,103.4 306.7,102.9 Z M311.7,93.7 C310.7,92 310.7,91.5 312.1,90.5 C313.5,89.4 314.5,84 313.2,84 C313,84 296.5,82.2 276.6,80 C237,75.6 237.6,75.7 239.4,76.8 C241.2,77.9 242.3,84 240.8,84 C240.1,84 239.9,84.5 240.2,85 C240.5,85.6 241.8,86 242.9,86 C244.1,86 244.8,86.2 244.5,86.5 C244.2,86.8 239.8,86.6 234.6,86.2 C222.8,85.1 220.8,86.2 231.9,87.8 C236.5,88.4 253.3,90.7 269.2,92.9 C314,99 311.1,98.8 312.1,97.1 C312.6,96.2 312.5,94.9 311.7,93.7 Z M201.2,78 C200.2,76.9 199.1,76.3 198.8,76.6 C198.5,76.9 199.1,77.8 200.1,78.6 C202.9,80.6 203.3,80.3 201.2,78 Z M205.7,56.7 C211.5,53.2 217,50 218,49.7 C218.9,49.3 219.7,48.4 219.7,47.7 C219.7,46.9 220.8,45.8 222.2,45.2 C225.4,43.7 226,43.7 225.2,45 C224.8,45.6 226.7,45.2 229.4,44.1 C232,43.1 238.1,40.6 242.8,38.7 C252.2,34.9 266,30.5 280.2,26.9 C292.9,23.6 288.3,23.4 274.1,26.5 C252.6,31.3 229.9,39.7 215.7,47.9 C205.6,53.8 194.3,61.6 192.1,64.3 L190.2,66.4 L192.7,64.7 C194.1,63.8 199.9,60.2 205.7,56.7 Z M307.9,14.3 C310.1,12.3 310.2,9.2 308,6.8 C306,4.6 303.9,4.5 301.5,6.7 C299.3,8.7 299.2,11.8 301.4,14.2 C303.4,16.4 305.5,16.5 307.9,14.3 Z" id="Shape" fill="#CA9B5C"></path>
            <path d="M254.5,88.3 C255.2,88 256.1,88.1 256.4,88.4 C256.8,88.7 256.2,89 255.1,88.9 C254,88.9 253.7,88.6 254.5,88.3 Z" id="Path" fill="#080808"></path>
            <path d="M247,87.3 C247.9,87.1 249.3,87.1 250,87.3 C250.6,87.6 249.9,87.8 248.2,87.8 C246.6,87.8 246,87.6 247,87.3 Z" id="Path" fill="#080808"></path>
            <path d="M441.2,63 C441.5,62.5 442,62 442.3,62 C442.5,62 442.7,62.5 442.7,63 C442.7,63.6 442.2,64 441.6,64 C441.1,64 440.9,63.6 441.2,63 Z" id="Path" fill="#080808"></path>
        </g>
    </g>
</svg>