<!-- Generator: Adobe Illustrator 16.0.4, SVG Export Plug-In . SVG Version: 6.00 Build 0)  -->
<svg xmlns="http://www.w3.org/2000/svg" xmlns:xlink="http://www.w3.org/1999/xlink" version="1.1" id="Layer_1" x="0px" y="0px" width="100px" height="100px" viewBox="0 0 100 100" enable-background="new 0 0 100 100" xml:space="preserve">
<g>
	<path fill="#1D1D1B" d="M60.366,51.064c0-5.295-4.421-9.604-9.854-9.604c-5.435,0-9.856,4.31-9.856,9.604   c0,5.297,4.421,9.604,9.856,9.604C55.945,60.668,60.366,56.361,60.366,51.064z"/>
	<g>
		<path fill="#1D1D1B" d="M50.512,27.927c5.117,0,9.855,1.593,13.736,4.287h18.646H100v-6.787C100,11.996,88.788,1.07,75.01,1.07    H24.991C11.211,1.07,0,11.996,0,25.427v6.787h36.774C40.655,29.52,45.395,27.927,50.512,27.927z M70.994,15.873    c0-1.488,1.25-2.706,2.777-2.706h8.58c1.527,0,2.776,1.218,2.776,2.706v8.363c0,1.487-1.249,2.706-2.776,2.706h-8.58    c-1.527,0-2.777-1.219-2.777-2.706V15.873z"/>
		<path fill="#1D1D1B" d="M74.25,51.064c0,12.758-10.648,23.136-23.738,23.136S26.773,63.822,26.773,51.064    c0-3.513,0.812-6.845,2.256-9.831H0v33.339C0,88.005,11.211,98.93,24.991,98.93H75.01c13.778,0,24.99-10.925,24.99-24.355v-33.34    H71.994C73.439,44.221,74.25,47.553,74.25,51.064z"/>
	</g>
</g>
</svg>