<?xml version="1.0" encoding="UTF-8"?>
<svg width="41px" height="41px" viewBox="0 0 52 68" version="1.1" xmlns="http://www.w3.org/2000/svg" xmlns:xlink="http://www.w3.org/1999/xlink">
    <!-- Generator: Sketch 54.1 (76490) - https://sketchapp.com -->
    <title>Slice 1</title>
    <desc>Created with Sketch.</desc>
    <g id="Page-1" stroke="none" stroke-width="1" fill="none" fill-rule="evenodd">
        <path d="M47.0770235,38.8700402 C45.2280126,42.7651426 42.4365969,47.1205161 38.2964593,52.5740313 C34.7210486,57.2827442 30.5782261,61.7887518 26.0004475,66 C21.4217739,61.7887518 17.2789514,57.2827442 13.7035407,52.5740313 C9.56340313,47.1205161 6.7719874,42.7651426 4.9050771,38.8347063 C3.00505286,35.2046085 2,31.0900638 2,26.9346061 C2,13.1869125 12.7665057,2 26.0004475,2 C39.2343893,2 50,13.1869125 50,26.9346061 C50,31.0900638 48.9958421,35.2046085 47.0770235,38.8700402 Z M0,26.7945243 C0,31.2591988 1.0881967,35.6803832 3.12991229,39.5482256 C5.04682644,43.5511648 7.91456592,47.9964076 12.1551212,53.5353799 C15.9817667,58.5367407 20.4279301,63.320651 25.36881,67.7566405 L25.5322191,67.8565752 L25.6381656,67.9213477 C25.7548864,67.9703897 25.8760964,68 26,68 C26.1230057,68 26.2442158,67.9703897 26.3609365,67.9213477 L26.4668831,67.8565752 L26.6302921,67.7566405 C31.571172,63.320651 36.0182333,58.5367407 39.8439809,53.5353799 C44.0845362,47.9964076 46.9522757,43.5511648 48.8512328,39.5833878 C50.9109054,35.6803832 52,31.2591988 52,26.7945243 C52,12.0199216 40.3369017,0 26,0 C11.6630983,0 0,12.0199216 0,26.7945243 Z" id="Fill-7" fill="#212529"></path>
        <path d="M47.0770235,38.8700402 C45.2280126,42.7651426 42.4365969,47.1205161 38.2964593,52.5740313 C34.7210486,57.2827442 30.5782261,61.7887518 26.0004475,66 C21.4217739,61.7887518 17.2789514,57.2827442 13.7035407,52.5740313 C9.56340313,47.1205161 6.7719874,42.7651426 4.9050771,38.8347063 C3.00505286,35.2046085 2,31.0900638 2,26.9346061 C2,13.1869125 12.7665057,2 26.0004475,2 C39.2343893,2 50,13.1869125 50,26.9346061 C50,31.0900638 48.9958421,35.2046085 47.0770235,38.8700402 Z" id="Fill-7" fill="#212529"></path>
        <path d="M20,18 L32,18 L32,16 L20,16 L20,18 Z M30.416,44.5845 L30.584,44.4155 L30.584,44.5845 L30.416,44.5845 Z M20,48 L32,48 L32,46 L20,46 L20,48 Z M26.0008309,54 C24.0440382,54 22.4079767,52.2854188 22,50 L30,50 C29.5911924,52.2854188 27.9567927,54 26.0008309,54 Z M21.385,19.6145 L21.385,19.3855 L21.615,19.3855 L21.385,19.6145 Z M30,23.6910026 L22,33 L22,31.3089974 L30,22 L30,23.6910026 Z M30,28.6910026 L22,38 L22,36.3089974 L30,27 L30,28.6910026 Z M30,32.6910026 L22,42 L22,40.3089974 L30,31 L30,32.6910026 Z M30,36.644363 L23.4642493,44 L22,44 L30,35 L30,36.644363 Z M30,41.799159 L27.4391026,45 L26,45 L30,40 L30,41.799159 Z M30,20 L30,20.0027328 L22,29 L22,27.3657895 L28.5501671,20 L30,20 Z M26,19 L22,24 L22,22.2251682 L24.5812067,19 L26,19 Z M26.0008309,10 C27.9567927,10 29.5911924,11.7156153 30,14 L22,14 C22.4079767,11.7156153 24.0440382,10 26.0008309,10 Z M33.0837834,13.4427294 L31.9631075,13.4427294 C31.5182591,10.36857 29.0262525,8 26.0004277,8 C22.972892,8 20.4808854,10.36857 20.0351815,13.4427294 L18.9162166,13.4427294 C18.4114848,13.4427294 18,13.8784013 18,14.4137072 L18,18.6535834 C18,19.1879835 18.4114848,19.6236555 18.9162166,19.6236555 L19.9427899,19.6236555 L19.9427899,44.3772503 L18.9162166,44.3772503 C18.4114848,44.3772503 18,44.8111107 18,45.3464166 L18,49.5871986 C18,50.1225044 18.4114848,50.5563649 18.9162166,50.5563649 L20.0351815,50.5563649 C20.4808854,53.63143 22.972892,56 26.0004277,56 C29.0262525,56 31.5182591,53.63143 31.9631075,50.5563649 L33.0837834,50.5563649 C33.5893707,50.5563649 34,50.1225044 34,49.5871986 L34,45.3464166 C34,44.8111107 33.5893707,44.3772503 33.0837834,44.3772503 L32.0563546,44.3772503 L32.0563546,19.6236555 L33.0837834,19.6236555 C33.5893707,19.6236555 34,19.1879835 34,18.6535834 L34,14.4137072 C34,13.8784013 33.5893707,13.4427294 33.0837834,13.4427294 L33.0837834,13.4427294 Z" id="Fill-8" fill="#FFFFFF" opacity="0.808733259"></path>
    </g>
</svg>